<svg xmlns="http://www.w3.org/2000/svg" xmlns:xlink="http://www.w3.org/1999/xlink" zoomAndPan="magnify" preserveAspectRatio="xMidYMid meet" version="1.0" viewBox="0.75 170.61 372.9 31.86"><defs><g/></defs><g fill="#ffffff" fill-opacity="1"><g transform="translate(0.157029, 201.833704)"><g><path d="M 16.328125 0 L 9.953125 0 L 9.953125 -27.265625 C 8.546875 -27.265625 7.3125 -27.140625 6.25 -26.890625 C 5.1875 -26.640625 4.207031 -26.269531 3.3125 -25.78125 C 2.425781 -25.289062 1.519531 -24.6875 0.59375 -23.96875 L 0.59375 -27.953125 L 25.671875 -27.953125 L 25.671875 -23.96875 C 24.773438 -24.6875 23.890625 -25.289062 23.015625 -25.78125 C 22.140625 -26.269531 21.175781 -26.640625 20.125 -26.890625 C 19.070312 -27.140625 17.804688 -27.265625 16.328125 -27.265625 Z M 16.328125 0 "/></g></g></g><g fill="#ffffff" fill-opacity="1"><g transform="translate(26.231681, 201.833704)"><g><path d="M 8.28125 0 L 1.90625 0 L 1.90625 -27.953125 L 8.28125 -27.953125 L 8.28125 -13.25 L 8.359375 -13.25 C 8.921875 -15.613281 9.710938 -17.566406 10.734375 -19.109375 C 11.753906 -20.648438 12.894531 -21.789062 14.15625 -22.53125 C 15.414062 -23.28125 16.671875 -23.65625 17.921875 -23.65625 C 19.140625 -23.65625 20.257812 -23.375 21.28125 -22.8125 C 22.300781 -22.25 23.128906 -21.460938 23.765625 -20.453125 C 24.398438 -19.453125 24.71875 -18.273438 24.71875 -16.921875 L 24.71875 0 L 18.359375 0 L 18.546875 -16.359375 C 18.578125 -18.003906 18.289062 -19.242188 17.6875 -20.078125 C 17.09375 -20.921875 16.347656 -21.34375 15.453125 -21.34375 C 14.578125 -21.34375 13.617188 -20.867188 12.578125 -19.921875 C 11.546875 -18.984375 10.628906 -17.59375 9.828125 -15.75 C 9.035156 -13.90625 8.519531 -11.613281 8.28125 -8.875 Z M 8.28125 0 "/></g></g></g><g fill="#ffffff" fill-opacity="1"><g transform="translate(53.022893, 201.833704)"><g><path d="M 9.3125 0.59375 C 7.539062 0.59375 6.078125 0.273438 4.921875 -0.359375 C 3.765625 -0.992188 2.90625 -1.820312 2.34375 -2.84375 C 1.789062 -3.863281 1.515625 -4.945312 1.515625 -6.09375 C 1.515625 -7.894531 1.984375 -9.453125 2.921875 -10.765625 C 3.867188 -12.078125 5.117188 -13.195312 6.671875 -14.125 C 8.222656 -15.0625 9.929688 -15.867188 11.796875 -16.546875 C 13.671875 -17.222656 15.535156 -17.835938 17.390625 -18.390625 C 17.390625 -21.523438 16.265625 -23.09375 14.015625 -23.09375 C 12.523438 -23.09375 11.003906 -22.539062 9.453125 -21.4375 C 7.898438 -20.332031 6.5 -18.851562 5.25 -17 L 4.0625 -21.578125 C 5.726562 -22.265625 7.46875 -22.800781 9.28125 -23.1875 C 11.101562 -23.570312 12.851562 -23.765625 14.53125 -23.765625 C 16.257812 -23.765625 17.816406 -23.523438 19.203125 -23.046875 C 20.597656 -22.566406 21.707031 -21.8125 22.53125 -20.78125 C 23.351562 -19.75 23.765625 -18.367188 23.765625 -16.640625 L 23.765625 0 L 17.390625 0 L 17.390625 -3.703125 C 16.441406 -2.554688 15.25 -1.550781 13.8125 -0.6875 C 12.382812 0.164062 10.882812 0.59375 9.3125 0.59375 Z M 12.296875 -1.625 C 13.148438 -1.625 14.019531 -1.890625 14.90625 -2.421875 C 15.800781 -2.953125 16.628906 -3.601562 17.390625 -4.375 L 17.390625 -17.71875 C 14.078125 -16.707031 11.664062 -15.398438 10.15625 -13.796875 C 8.644531 -12.191406 7.890625 -10.085938 7.890625 -7.484375 C 7.890625 -5.703125 8.3125 -4.28125 9.15625 -3.21875 C 10.007812 -2.15625 11.054688 -1.625 12.296875 -1.625 Z M 12.296875 -1.625 "/></g></g></g><g fill="#ffffff" fill-opacity="1"><g transform="translate(78.739265, 201.833704)"><g><path d="M 8.28125 0 L 1.90625 0 L 1.90625 -23.015625 L 8.28125 -23.015625 L 8.28125 -12.015625 L 8.328125 -12.015625 C 8.773438 -14.015625 9.398438 -15.804688 10.203125 -17.390625 C 11.015625 -18.984375 11.945312 -20.304688 13 -21.359375 C 14.050781 -22.410156 15.191406 -23.09375 16.421875 -23.40625 C 17.660156 -23.726562 18.925781 -23.597656 20.21875 -23.015625 L 19.546875 -19.03125 C 17.660156 -19.90625 15.988281 -20.097656 14.53125 -19.609375 C 13.070312 -19.117188 11.820312 -18.054688 10.78125 -16.421875 C 9.75 -14.785156 8.914062 -12.671875 8.28125 -10.078125 Z M 8.28125 0 "/></g></g></g><g fill="#ffffff" fill-opacity="1"><g transform="translate(100.355345, 201.833704)"><g><path d="M 5.171875 -24.6875 C 4.273438 -24.6875 3.503906 -25.003906 2.859375 -25.640625 C 2.222656 -26.273438 1.90625 -27.046875 1.90625 -27.953125 C 1.90625 -28.878906 2.222656 -29.65625 2.859375 -30.28125 C 3.503906 -30.90625 4.273438 -31.21875 5.171875 -31.21875 C 6.097656 -31.21875 6.875 -30.90625 7.5 -30.28125 C 8.125 -29.65625 8.4375 -28.878906 8.4375 -27.953125 C 8.4375 -27.046875 8.125 -26.273438 7.5 -25.640625 C 6.875 -25.003906 6.097656 -24.6875 5.171875 -24.6875 Z M 8.359375 0 L 1.984375 0 L 1.984375 -23.015625 L 8.359375 -23.015625 Z M 8.359375 0 "/></g></g></g><g fill="#ffffff" fill-opacity="1"><g transform="translate(110.745401, 201.833704)"><g><path d="M 19.0625 -23.6875 C 20 -23.6875 20.929688 -23.472656 21.859375 -23.046875 C 22.785156 -22.628906 23.550781 -21.960938 24.15625 -21.046875 C 24.769531 -20.128906 25.078125 -18.925781 25.078125 -17.4375 L 25.078125 0 L 18.71875 0 L 18.71875 -17.078125 C 18.71875 -18.703125 18.460938 -19.867188 17.953125 -20.578125 C 17.453125 -21.296875 16.789062 -21.65625 15.96875 -21.65625 C 15.21875 -21.65625 14.390625 -21.390625 13.484375 -20.859375 C 12.585938 -20.328125 11.6875 -19.582031 10.78125 -18.625 C 9.882812 -17.675781 9.050781 -16.578125 8.28125 -15.328125 L 8.28125 0 L 1.90625 0 L 1.90625 -22.96875 L 8.28125 -22.96875 L 8.28125 -16.484375 C 9.957031 -19.003906 11.742188 -20.832031 13.640625 -21.96875 C 15.535156 -23.113281 17.34375 -23.6875 19.0625 -23.6875 Z M 19.0625 -23.6875 "/></g></g></g><g fill="#ffffff" fill-opacity="1"><g transform="translate(137.894882, 201.833704)"><g><path d="M 10.515625 0.640625 C 8.972656 0.640625 7.484375 0.21875 6.046875 -0.625 C 4.617188 -1.476562 3.445312 -2.773438 2.53125 -4.515625 C 1.613281 -6.253906 1.15625 -8.453125 1.15625 -11.109375 C 1.15625 -13.835938 1.703125 -16.125 2.796875 -17.96875 C 3.898438 -19.820312 5.398438 -21.210938 7.296875 -22.140625 C 9.203125 -23.066406 11.347656 -23.53125 13.734375 -23.53125 C 15.140625 -23.53125 16.597656 -23.332031 18.109375 -22.9375 L 18.109375 -27.953125 L 24.484375 -27.953125 L 24.484375 0 L 18.109375 0 L 18.109375 -4.859375 C 17.398438 -2.992188 16.347656 -1.609375 14.953125 -0.703125 C 13.554688 0.191406 12.078125 0.640625 10.515625 0.640625 Z M 12.625 -0.75 C 13.707031 -0.75 14.742188 -1.265625 15.734375 -2.296875 C 16.734375 -3.335938 17.523438 -4.828125 18.109375 -6.765625 L 18.109375 -22.140625 C 17.285156 -22.398438 16.453125 -22.53125 15.609375 -22.53125 C 13.085938 -22.53125 11.03125 -21.585938 9.4375 -19.703125 C 7.84375 -17.816406 7.046875 -14.925781 7.046875 -11.03125 C 7.046875 -8.800781 7.300781 -6.921875 7.8125 -5.390625 C 8.332031 -3.867188 9.015625 -2.710938 9.859375 -1.921875 C 10.710938 -1.140625 11.632812 -0.75 12.625 -0.75 Z M 12.625 -0.75 "/></g></g></g><g fill="#ffffff" fill-opacity="1"><g transform="translate(164.487047, 201.833704)"><g><path d="M 8.84375 0.640625 C 7.613281 0.640625 6.457031 0.363281 5.375 -0.1875 C 4.289062 -0.75 3.410156 -1.582031 2.734375 -2.6875 C 2.054688 -3.789062 1.71875 -5.148438 1.71875 -6.765625 L 1.71875 -23.015625 L 8.078125 -23.015625 L 8.078125 -3.90625 C 8.078125 -2.789062 8.320312 -1.972656 8.8125 -1.453125 C 9.3125 -0.929688 9.914062 -0.671875 10.625 -0.671875 C 11.5 -0.671875 12.414062 -1.050781 13.375 -1.8125 C 14.332031 -2.570312 15.1875 -3.632812 15.9375 -5 C 16.695312 -6.363281 17.222656 -7.945312 17.515625 -9.75 L 17.515625 -23.015625 L 23.890625 -23.015625 L 23.890625 0 L 17.515625 0 L 17.515625 -6.921875 L 17.390625 -6.921875 C 16.515625 -4.429688 15.320312 -2.546875 13.8125 -1.265625 C 12.300781 0.00390625 10.644531 0.640625 8.84375 0.640625 Z M 8.84375 0.640625 "/></g></g></g><g fill="#ffffff" fill-opacity="1"><g transform="translate(190.362652, 201.833704)"><g/></g></g><g fill="#ffffff" fill-opacity="1"><g transform="translate(199.518635, 201.833704)"><g><path d="M 21.9375 0 L 1.984375 0 L 1.984375 -27.953125 L 8.359375 -27.953125 L 8.359375 -0.671875 C 10.378906 -0.671875 12.140625 -0.773438 13.640625 -0.984375 C 15.140625 -1.203125 16.546875 -1.550781 17.859375 -2.03125 C 19.171875 -2.507812 20.53125 -3.160156 21.9375 -3.984375 Z M 21.9375 0 "/></g></g></g><g fill="#ffffff" fill-opacity="1"><g transform="translate(222.607638, 201.833704)"><g><path d="M 9.3125 0.59375 C 7.539062 0.59375 6.078125 0.273438 4.921875 -0.359375 C 3.765625 -0.992188 2.90625 -1.820312 2.34375 -2.84375 C 1.789062 -3.863281 1.515625 -4.945312 1.515625 -6.09375 C 1.515625 -7.894531 1.984375 -9.453125 2.921875 -10.765625 C 3.867188 -12.078125 5.117188 -13.195312 6.671875 -14.125 C 8.222656 -15.0625 9.929688 -15.867188 11.796875 -16.546875 C 13.671875 -17.222656 15.535156 -17.835938 17.390625 -18.390625 C 17.390625 -21.523438 16.265625 -23.09375 14.015625 -23.09375 C 12.523438 -23.09375 11.003906 -22.539062 9.453125 -21.4375 C 7.898438 -20.332031 6.5 -18.851562 5.25 -17 L 4.0625 -21.578125 C 5.726562 -22.265625 7.46875 -22.800781 9.28125 -23.1875 C 11.101562 -23.570312 12.851562 -23.765625 14.53125 -23.765625 C 16.257812 -23.765625 17.816406 -23.523438 19.203125 -23.046875 C 20.597656 -22.566406 21.707031 -21.8125 22.53125 -20.78125 C 23.351562 -19.75 23.765625 -18.367188 23.765625 -16.640625 L 23.765625 0 L 17.390625 0 L 17.390625 -3.703125 C 16.441406 -2.554688 15.25 -1.550781 13.8125 -0.6875 C 12.382812 0.164062 10.882812 0.59375 9.3125 0.59375 Z M 12.296875 -1.625 C 13.148438 -1.625 14.019531 -1.890625 14.90625 -2.421875 C 15.800781 -2.953125 16.628906 -3.601562 17.390625 -4.375 L 17.390625 -17.71875 C 14.078125 -16.707031 11.664062 -15.398438 10.15625 -13.796875 C 8.644531 -12.191406 7.890625 -10.085938 7.890625 -7.484375 C 7.890625 -5.703125 8.3125 -4.28125 9.15625 -3.21875 C 10.007812 -2.15625 11.054688 -1.625 12.296875 -1.625 Z M 12.296875 -1.625 "/></g></g></g><g fill="#ffffff" fill-opacity="1"><g transform="translate(248.324021, 201.833704)"><g><path d="M 8.28125 0 L 1.90625 0 L 1.90625 -27.953125 L 8.28125 -27.953125 L 8.28125 -14.765625 L 22.578125 -22.765625 L 22.578125 -18.828125 C 21.703125 -18.960938 20.691406 -18.929688 19.546875 -18.734375 C 18.410156 -18.535156 17.253906 -18.234375 16.078125 -17.828125 C 14.910156 -17.429688 13.820312 -17 12.8125 -16.53125 C 11.8125 -16.070312 10.988281 -15.65625 10.34375 -15.28125 L 10.34375 -15.171875 C 11.519531 -15.597656 12.648438 -15.789062 13.734375 -15.75 C 14.828125 -15.707031 15.789062 -15.445312 16.625 -14.96875 C 17.457031 -14.488281 18.0625 -13.800781 18.4375 -12.90625 L 23.921875 0 L 17.5625 0 L 12.015625 -12.703125 C 11.671875 -13.492188 11.164062 -13.957031 10.5 -14.09375 C 9.84375 -14.226562 9.101562 -14.148438 8.28125 -13.859375 Z M 8.28125 0 "/></g></g></g><g fill="#ffffff" fill-opacity="1"><g transform="translate(273.403471, 201.833704)"><g><path d="M 8.28125 0 L 1.90625 0 L 1.90625 -23.015625 L 8.28125 -23.015625 L 8.28125 -16.078125 L 8.359375 -16.078125 C 8.835938 -17.722656 9.515625 -19.109375 10.390625 -20.234375 C 11.265625 -21.367188 12.238281 -22.226562 13.3125 -22.8125 C 14.394531 -23.394531 15.492188 -23.6875 16.609375 -23.6875 C 18.359375 -23.6875 19.769531 -23.066406 20.84375 -21.828125 C 21.914062 -20.597656 22.453125 -18.800781 22.453125 -16.4375 L 22.578125 -16.4375 C 23.265625 -18.882812 24.332031 -20.703125 25.78125 -21.890625 C 27.226562 -23.085938 28.71875 -23.6875 30.25 -23.6875 C 31.976562 -23.6875 33.445312 -23.046875 34.65625 -21.765625 C 35.863281 -20.492188 36.46875 -18.613281 36.46875 -16.125 L 36.46875 0 L 30.09375 0 L 30.09375 -16.765625 C 30.09375 -18.273438 29.828125 -19.351562 29.296875 -20 C 28.765625 -20.65625 28.179688 -20.984375 27.546875 -20.984375 C 26.484375 -20.984375 25.472656 -20.363281 24.515625 -19.125 C 23.566406 -17.894531 22.921875 -16.046875 22.578125 -13.578125 L 22.578125 0 L 16.203125 0 L 16.203125 -16.765625 C 16.203125 -18.359375 15.921875 -19.5 15.359375 -20.1875 C 14.804688 -20.875 14.1875 -21.21875 13.5 -21.21875 C 12.351562 -21.21875 11.28125 -20.519531 10.28125 -19.125 C 9.289062 -17.738281 8.625 -15.753906 8.28125 -13.171875 Z M 8.28125 0 "/></g></g></g><g fill="#ffffff" fill-opacity="1"><g transform="translate(311.938221, 201.833704)"><g><path d="M 9.3125 0.59375 C 7.539062 0.59375 6.078125 0.273438 4.921875 -0.359375 C 3.765625 -0.992188 2.90625 -1.820312 2.34375 -2.84375 C 1.789062 -3.863281 1.515625 -4.945312 1.515625 -6.09375 C 1.515625 -7.894531 1.984375 -9.453125 2.921875 -10.765625 C 3.867188 -12.078125 5.117188 -13.195312 6.671875 -14.125 C 8.222656 -15.0625 9.929688 -15.867188 11.796875 -16.546875 C 13.671875 -17.222656 15.535156 -17.835938 17.390625 -18.390625 C 17.390625 -21.523438 16.265625 -23.09375 14.015625 -23.09375 C 12.523438 -23.09375 11.003906 -22.539062 9.453125 -21.4375 C 7.898438 -20.332031 6.5 -18.851562 5.25 -17 L 4.0625 -21.578125 C 5.726562 -22.265625 7.46875 -22.800781 9.28125 -23.1875 C 11.101562 -23.570312 12.851562 -23.765625 14.53125 -23.765625 C 16.257812 -23.765625 17.816406 -23.523438 19.203125 -23.046875 C 20.597656 -22.566406 21.707031 -21.8125 22.53125 -20.78125 C 23.351562 -19.75 23.765625 -18.367188 23.765625 -16.640625 L 23.765625 0 L 17.390625 0 L 17.390625 -3.703125 C 16.441406 -2.554688 15.25 -1.550781 13.8125 -0.6875 C 12.382812 0.164062 10.882812 0.59375 9.3125 0.59375 Z M 12.296875 -1.625 C 13.148438 -1.625 14.019531 -1.890625 14.90625 -2.421875 C 15.800781 -2.953125 16.628906 -3.601562 17.390625 -4.375 L 17.390625 -17.71875 C 14.078125 -16.707031 11.664062 -15.398438 10.15625 -13.796875 C 8.644531 -12.191406 7.890625 -10.085938 7.890625 -7.484375 C 7.890625 -5.703125 8.3125 -4.28125 9.15625 -3.21875 C 10.007812 -2.15625 11.054688 -1.625 12.296875 -1.625 Z M 12.296875 -1.625 "/></g></g></g><g fill="#ffffff" fill-opacity="1"><g transform="translate(337.654581, 201.833704)"><g><path d="M 8.5625 0 L 2.1875 0 L 2.1875 -27.953125 L 8.5625 -27.953125 Z M 8.5625 0 "/></g></g></g><g fill="#ffffff" fill-opacity="1"><g transform="translate(348.203882, 201.833704)"><g><path d="M 4.453125 0.640625 C 3.554688 0.640625 2.785156 0.328125 2.140625 -0.296875 C 1.503906 -0.921875 1.1875 -1.6875 1.1875 -2.59375 C 1.1875 -3.519531 1.503906 -4.296875 2.140625 -4.921875 C 2.785156 -5.546875 3.554688 -5.859375 4.453125 -5.859375 C 5.359375 -5.859375 6.125 -5.546875 6.75 -4.921875 C 7.375 -4.296875 7.6875 -3.519531 7.6875 -2.59375 C 7.6875 -1.6875 7.375 -0.921875 6.75 -0.296875 C 6.125 0.328125 5.359375 0.640625 4.453125 0.640625 Z M 4.453125 0.640625 "/></g></g></g><g fill="#ffffff" fill-opacity="1"><g transform="translate(357.081201, 201.833704)"><g><path d="M 4.453125 0.640625 C 3.554688 0.640625 2.785156 0.328125 2.140625 -0.296875 C 1.503906 -0.921875 1.1875 -1.6875 1.1875 -2.59375 C 1.1875 -3.519531 1.503906 -4.296875 2.140625 -4.921875 C 2.785156 -5.546875 3.554688 -5.859375 4.453125 -5.859375 C 5.359375 -5.859375 6.125 -5.546875 6.75 -4.921875 C 7.375 -4.296875 7.6875 -3.519531 7.6875 -2.59375 C 7.6875 -1.6875 7.375 -0.921875 6.75 -0.296875 C 6.125 0.328125 5.359375 0.640625 4.453125 0.640625 Z M 4.453125 0.640625 "/></g></g></g><g fill="#ffffff" fill-opacity="1"><g transform="translate(365.958519, 201.833704)"><g><path d="M 4.453125 0.640625 C 3.554688 0.640625 2.785156 0.328125 2.140625 -0.296875 C 1.503906 -0.921875 1.1875 -1.6875 1.1875 -2.59375 C 1.1875 -3.519531 1.503906 -4.296875 2.140625 -4.921875 C 2.785156 -5.546875 3.554688 -5.859375 4.453125 -5.859375 C 5.359375 -5.859375 6.125 -5.546875 6.75 -4.921875 C 7.375 -4.296875 7.6875 -3.519531 7.6875 -2.59375 C 7.6875 -1.6875 7.375 -0.921875 6.75 -0.296875 C 6.125 0.328125 5.359375 0.640625 4.453125 0.640625 Z M 4.453125 0.640625 "/></g></g></g></svg>